<?xml version="1.0" standalone="no"?>
<svg viewBox="0 0 200 200" xmlns="http://www.w3.org/2000/svg">
  <path fill="#0F62FE" d="M49.9,-78.8C63.9,-68.7,73.8,-53.5,79.1,-37.4C84.4,-21.4,85.1,-4.5,81.9,11.2C78.7,26.8,71.6,41.4,61.2,52.7C50.8,64,37.2,72.2,22.4,76.6C7.7,81,-8.3,81.7,-23.1,77.8C-38,73.9,-51.8,65.4,-63.3,53.9C-74.8,42.4,-83.9,27.9,-84.4,13.2C-84.8,-1.5,-76.6,-16.4,-68.1,-29.4C-59.5,-42.5,-50.6,-53.7,-39.2,-65C-27.8,-76.2,-13.9,-87.6,2,-90.7C18,-93.9,36,-88.9,49.9,-78.8Z" transform="translate(100 100)" />
</svg>
