<?xml version="1.0" standalone="no"?>
<svg viewBox="0 0 200 200" xmlns="http://www.w3.org/2000/svg">
  <path fill="#24A148" d="M15.8,-35.8C22.9,-23.4,32.5,-23.9,42.2,-20C51.9,-16.2,61.7,-8.1,68.7,4C75.6,16.1,79.7,32.3,72.7,40.8C65.7,49.3,47.6,50.2,33.6,49.2C19.6,48.2,9.8,45.4,2,41.9C-5.8,38.4,-11.6,34.2,-23.3,33.9C-35.1,33.6,-52.8,37.2,-62.6,32.2C-72.3,27.2,-74.1,13.6,-69.6,2.5C-65.2,-8.5,-54.7,-17,-46.3,-24.3C-37.9,-31.7,-31.7,-37.9,-24.3,-50.1C-17,-62.3,-8.5,-80.4,-2,-76.9C4.4,-73.3,8.8,-48.1,15.8,-35.8Z" transform="translate(100 100)" />
</svg>
