<?xml version="1.0" standalone="no"?>
<svg viewBox="0 0 200 200" xmlns="http://www.w3.org/2000/svg">
  <path fill="#FA4D56" d="M42.2,-75C53.3,-66.8,59.9,-52.6,66.6,-39.1C73.4,-25.6,80.4,-12.8,80.2,-0.1C80,12.5,72.6,25.1,63.9,35.3C55.2,45.5,45.3,53.4,34.5,58.3C23.6,63.3,11.8,65.2,-1.6,67.9C-14.9,70.6,-29.9,74.1,-43.8,71C-57.8,67.8,-70.8,58.1,-74.8,45.2C-78.9,32.2,-73.9,16.1,-72.2,1C-70.4,-14.1,-71.7,-28.1,-68.1,-41.8C-64.5,-55.4,-55.8,-68.6,-43.6,-76.2C-31.5,-83.8,-15.7,-85.9,-0.1,-85.8C15.6,-85.6,31.2,-83.3,42.2,-75Z" transform="translate(100 100)" />
</svg>
