<?xml version="1.0" standalone="no"?>
<svg viewBox="0 0 200 200" xmlns="http://www.w3.org/2000/svg">
  <path fill="#24A148" d="M40.8,-77C48.5,-66.1,47.5,-46.5,50.6,-32.2C53.7,-17.9,60.8,-9,65.9,2.9C71,14.8,74.1,29.7,70.1,42.4C66.1,55.2,55.2,65.9,42.3,72.1C29.5,78.3,14.7,80,2.5,75.6C-9.7,71.2,-19.4,60.8,-32.7,54.9C-46,49,-63,47.6,-69.9,39.2C-76.8,30.8,-73.6,15.4,-74.4,-0.4C-75.1,-16.2,-79.7,-32.5,-73.3,-41.6C-66.8,-50.8,-49.3,-53,-35.3,-60.2C-21.2,-67.5,-10.6,-79.9,2.9,-85C16.5,-90.1,33,-87.9,40.8,-77Z" transform="translate(100 100)" />
</svg>
